<svg xmlns="http://www.w3.org/2000/svg" xml:space="preserve" width="800" height="800" viewBox="0 0 511 511">
  <path fill="#00bd7e"
    d="M487.5 128.1H479v-24.5c0-2.9-1.7-5.5-4.3-6.8a260.3 260.3 0 0 0-219.2-1.4 260.3 260.3 0 0 0-219.2 1.4 7.5 7.5 0 0 0-4.3 6.8v24.5h-8.5c-13 0-23.5 10.5-23.5 23.5v264c0 13 10.5 23.5 23.5 23.5h464c13 0 23.5-10.5 23.5-23.5v-264c0-13-10.5-23.5-23.5-23.5zM263 239.6V108.4a245.3 245.3 0 0 1 201 0v271.7a260.7 260.7 0 0 0-201 0V239.6zM215 96.4c11.2 3.2 22.2 7.2 33 12v117.2l-12.3-8.2a7.5 7.5 0 0 0-8.4 0l-12.3 8.2V96.4zM47 135.6v-27.2c48.6-21.7 102-27 153-15.8v32.9a258 258 0 0 0-81.3-3.8 7.5 7.5 0 1 0 1.6 15c26.7-3 53.5-1.7 79.7 4v48.8c-16-3.3-32.1-5.1-48.4-5.4a7.5 7.5 0 1 0-.2 15 249 249 0 0 1 48.6 5.7v16.6a261 261 0 0 0-130.8 6.7 7.5 7.5 0 1 0 4.5 14.3 246 246 0 0 1 126.3-5.6v2.8a7.5 7.5 0 0 0 11.7 6.2l19.8-13.2 16.5 11v136.5a260.7 260.7 0 0 0-201 0V135.6zm177 288.5H23.5a8.5 8.5 0 0 1-8.5-8.5v-264c0-4.7 3.8-8.5 8.5-8.5H32v256.5c0 4.1 3.4 7.5 7.5 7.5H224v17zm-166.7-32c58-23 122.3-23 180.4 0H57.3zm214.7 32h-33v-17h33v17zm181.7-32H273.3c58-23 122.3-23 180.4 0zm42.3 23.5c0 4.7-3.8 8.5-8.5 8.5H287v-17h184.5c4.1 0 7.5-3.4 7.5-7.5V143.1h8.5c4.7 0 8.5 3.8 8.5 8.5v264z" />
  <path fill="#00bd7e"
    d="M310 317.7c-8.3 1.8-16.7 4-24.7 6.5a7.5 7.5 0 0 0 4.4 14.3c7.7-2.4 15.5-4.4 23.3-6a7.5 7.5 0 0 0-3-14.8zm129.5 21.2a7.5 7.5 0 0 0 2.2-14.7c-32-10-65.3-13.8-98.8-11.2a7.5 7.5 0 1 0 1.2 15c31.6-2.5 63 1 93.2 10.5.7.2 1.5.4 2.2.4zm-152-32.1c.7 0 1.5-.1 2.2-.4a244.9 244.9 0 0 1 147.6 0 7.5 7.5 0 0 0 4.4-14.3c-51.1-16-105.3-16-156.4 0a7.5 7.5 0 0 0 2.2 14.7zm0-31.9c.7 0 1.5-.2 2.2-.4a245.3 245.3 0 0 1 85.4-11 7.5 7.5 0 1 0 .8-15 260.3 260.3 0 0 0-90.6 11.7 7.5 7.5 0 0 0 2.2 14.7zm154.2-14.7a263 263 0 0 0-32.9-8 7.5 7.5 0 0 0-2.6 14.7 247 247 0 0 1 31 7.6 7.5 7.5 0 1 0 4.5-14.3zm-154.2-17.4c.7 0 1.5-.1 2.2-.4a244.9 244.9 0 0 1 147.6 0 7.5 7.5 0 0 0 4.4-14.3c-51.1-16-105.3-16-156.4 0a7.5 7.5 0 0 0 2.2 14.7zm47.2-57.1a261.6 261.6 0 0 0-49.4 10.4 7.5 7.5 0 1 0 4.4 14.3c15.2-4.7 30.9-8 46.6-9.8a7.5 7.5 0 0 0-1.6-14.9zm32.7 13.4a248 248 0 0 1 69.9 11.3 7.5 7.5 0 0 0 9.4-4.9c1.2-4-1-8.1-5-9.4a261 261 0 0 0-74-12 7.5 7.5 0 0 0-.3 15zm23.3-30.4a7.5 7.5 0 1 0 1.6-14.9 260 260 0 0 0-107 10.4 7.5 7.5 0 0 0 4.4 14.3 244.6 244.6 0 0 1 101-9.8zm51-4.5a262 262 0 0 0-16.4-4.6 7.5 7.5 0 1 0-3.6 14.6c5.2 1.3 10.4 2.7 15.6 4.3a7.5 7.5 0 1 0 4.4-14.3zm-154.2-17.4c.7 0 1.5-.1 2.2-.4a247 247 0 0 1 15.6-4.3 7.5 7.5 0 0 0-3.6-14.6c-5.5 1.4-11 3-16.4 4.6a7.5 7.5 0 0 0 2.2 14.7zm48.8-10.2c34.2-3.8 68.2-.5 101 9.8a7.5 7.5 0 0 0 9.4-4.9c1.2-4-1-8.1-5-9.4a259.5 259.5 0 0 0-107-10.4 7.5 7.5 0 1 0 1.6 15zM94 317.7c-8.3 1.8-16.7 4-24.7 6.5a7.5 7.5 0 0 0 4.4 14.3c7.7-2.4 15.5-4.4 23.3-6a7.5 7.5 0 0 0-3-14.8zm129.5 21.2a7.5 7.5 0 0 0 2.2-14.7c-32-10-65.3-13.8-98.8-11.2a7.5 7.5 0 1 0 1.2 15c31.6-2.5 63 1 93.2 10.5.7.2 1.5.4 2.2.4zm-152-32.1c.7 0 1.5-.1 2.2-.4a244.9 244.9 0 0 1 147.6 0 7.5 7.5 0 0 0 4.4-14.3c-51.1-16-105.3-16-156.4 0a7.5 7.5 0 0 0 2.2 14.7zm0-31.9c.7 0 1.5-.2 2.2-.4a245.3 245.3 0 0 1 85.4-11 7.5 7.5 0 1 0 .8-15 260.3 260.3 0 0 0-90.6 11.7 7.5 7.5 0 0 0 2.2 14.7zm118.7-7.9a247 247 0 0 1 31 7.5 7.5 7.5 0 1 0 4.5-14.3 263 263 0 0 0-32.9-8 7.5 7.5 0 0 0-2.6 14.7zm-71.5-81.3a261.6 261.6 0 0 0-49.4 10.4 7.5 7.5 0 1 0 4.4 14.3c15.2-4.7 30.9-8 46.6-9.8a7.5 7.5 0 0 0-1.6-14.9zm-54.4-12.1a7.5 7.5 0 0 0 9.4 5 244.6 244.6 0 0 1 101-9.9 7.5 7.5 0 1 0 1.6-15c-36.2-4-72.3-.4-107 10.5a7.5 7.5 0 0 0-5 9.4zm7.2-26.8c.7 0 1.5-.1 2.2-.4a247 247 0 0 1 15.6-4.3 7.5 7.5 0 0 0-3.6-14.6c-5.5 1.4-11 3-16.4 4.6a7.5 7.5 0 0 0 2.2 14.7z" />
</svg>